<?xml version="1.0" encoding="UTF-8" standalone="no"?> <svg xmlns="http://www.w3.org/2000/svg" viewBox="0 0 64 64"><title>mountain</title><g id="mountain"><path d="M28.508,18.129a1,1,0,0,1,1.812,0l1.228,2.632.338-.693L29.414,15,21.6,31h.9Z"/><path d="M39.2,8.49A1.022,1.022,0,0,1,39.1,8H38V9h1.434Z"/><path d="M31.491,24h-.008a1.013,1.013,0,0,1-.909-.584L29.353,20.8,24.591,31H44.515L36.61,14.813,32.4,23.432A1.012,1.012,0,0,1,31.491,24Z"/><polygon points="34.295 15.137 33 12.486 31.704 15.138 32.999 17.79 34.295 15.137"/><path d="M44.791,47.744l5.67-21.414a.988.988,0,0,1,.069-.309A16.219,16.219,0,0,0,51.7,20c0-9.374-8.01-17-17.855-17S15.992,10.627,15.992,20a16.183,16.183,0,0,0,1.756,7.312,1,1,0,0,1-.032.955.952.952,0,0,1-.153.2L13.3,34.875,14.71,36.3A1,1,0,0,1,15,37V48H27.894a1,1,0,0,1,.923,1.382L24.428,60H51.036l-6.16-11.528A1.007,1.007,0,0,1,44.791,47.744ZM19.1,31.562l9.414-19.276a1,1,0,0,1,1.8,0l.279.573,1.51-3.09a1,1,0,0,1,1.8,0l1.51,3.09L36,11.946V7a1,1,0,0,1,1-1h4a1,1,0,0,1,.767,1.643l-.489.582.629,1.354A1,1,0,0,1,41,11H38v2.342l8.9,18.22A1,1,0,0,1,46,33H20a1,1,0,0,1-.9-1.438ZM31,46a1,1,0,0,1,1-1H42a1,1,0,0,1,0,2H32A1,1,0,0,1,31,46Zm1,6a1,1,0,1,1-1-1A1,1,0,0,1,32,52ZM22,47H17a.99.99,0,0,1-1-1V40.979A1,1,0,0,1,18,41v4h4a1,1,0,0,1,0,2Zm6,0a1,1,0,1,1,1-1A1,1,0,0,1,28,47ZM40,58H30a1,1,0,0,1,0-2H40a1,1,0,0,1,0,2Zm4,1H42V57h2Zm1-5h2v2H45Zm0,3h2v2H45Z"/></g></svg>