<?xml version="1.0" encoding="utf-8"?>
<!-- Generator: Adobe Illustrator 23.1.0, SVG Export Plug-In . SVG Version: 6.00 Build 0)  -->
<svg version="1.1" id="Layer_1" xmlns="http://www.w3.org/2000/svg" xmlns:xlink="http://www.w3.org/1999/xlink" x="0px" y="0px"
	 viewBox="0 0 64 64" style="enable-background:new 0 0 64 64;" xml:space="preserve">
<style type="text/css">
	.st0{fill:#001777;}
	.st1{fill:#0078C1;}
	.st2{fill:#FFFD1C;}
	.st3{fill:#B70202;}
</style>
<title>mountain</title>
<g id="mountain">
	<path class="st0" d="M28.5,18.1c0.2-0.5,0.8-0.7,1.3-0.5c0.2,0.1,0.4,0.3,0.5,0.5l1.2,2.6l0.3-0.7L29.4,15l-7.8,16h0.9L28.5,18.1z"
		/>
	<path class="st1" d="M39.2,8.5c-0.1-0.2-0.1-0.3-0.1-0.5H38v1h1.4L39.2,8.5z"/>
	<path class="st0" d="M31.5,24L31.5,24c-0.4,0-0.8-0.2-0.9-0.6l-1.2-2.6L24.6,31h19.9l-7.9-16.2l-4.2,8.6C32.2,23.8,31.9,24,31.5,24
		z"/>
	<polygon class="st2" points="34.3,15.1 33,12.5 31.7,15.1 33,17.8 	"/>
	<path class="st3" d="M44.8,47.7l5.7-21.4c0-0.1,0-0.2,0.1-0.3c0.8-1.9,1.2-4,1.2-6c0-9.4-8-17-17.9-17S16,10.6,16,20
		c0,2.5,0.6,5,1.8,7.3c0.2,0.3,0.1,0.7,0,1c0,0.1-0.1,0.1-0.2,0.2l-4.3,6.4l1.4,1.4c0.2,0.2,0.3,0.4,0.3,0.7v11h12.9
		c0.6,0,1,0.4,1,1c0,0.1,0,0.3-0.1,0.4L24.4,60H51l-6.2-11.5C44.8,48.2,44.7,48,44.8,47.7z M19.1,31.6l9.4-19.3
		c0.2-0.5,0.8-0.7,1.3-0.5c0.2,0.1,0.4,0.3,0.5,0.5l0.3,0.6l1.5-3.1c0.2-0.5,0.8-0.7,1.3-0.5c0.2,0.1,0.4,0.3,0.5,0.5l1.5,3.1
		l0.6-0.9V7c0-0.6,0.4-1,1-1h4c0.6,0,1,0.4,1,1c0,0.2-0.1,0.5-0.2,0.6l-0.5,0.6l0.6,1.4c0.2,0.5,0,1.1-0.5,1.3
		C41.3,11,41.1,11,41,11h-3v2.3l8.9,18.2c0.2,0.5,0,1.1-0.5,1.3C46.3,33,46.2,33,46,33H20c-0.6,0-1-0.4-1-1
		C19,31.8,19,31.7,19.1,31.6z M31,46c0-0.6,0.4-1,1-1h10c0.6,0,1,0.4,1,1s-0.4,1-1,1H32C31.4,47,31,46.6,31,46z M32,52
		c0,0.6-0.4,1-1,1s-1-0.4-1-1s0.4-1,1-1S32,51.4,32,52z M22,47h-5c-0.5,0-1-0.4-1-1c0,0,0,0,0,0v-5c0-0.6,0.5-1,1-1c0.6,0,1,0.5,1,1
		v4h4c0.6,0,1,0.4,1,1S22.6,47,22,47z M28,47c-0.6,0-1-0.4-1-1s0.4-1,1-1s1,0.4,1,1S28.6,47,28,47z M40,58H30c-0.6,0-1-0.4-1-1
		s0.4-1,1-1h10c0.6,0,1,0.4,1,1S40.6,58,40,58z M44,59h-2v-2h2V59z M45,54h2v2h-2V54z M45,57h2v2h-2V57z"/>
</g>
</svg>
